<svg xmlns="http://www.w3.org/2000/svg" xmlns:xlink="http://www.w3.org/1999/xlink" viewBox="-50 0 500 782">
  <g class="g-interactive" id="Phone_back" data-name="Phone back" style="isolation: isolate">
    <path d="M104,192v3h63c12.06,0,23.86.8,31-4,6.18-4.16,13.87-15,16-23V137c0-32.32,4.91-63.7-13-79-9.09-7.77-23.8-7-41-7-43.5,0-65.26-4.23-80,26v35C80,146.41,73.05,188.05,104,192Z" fill-rule="evenodd"/>
    <path d="M413,124h4c2.26,6.68,1.08,18.58,1,27-7.71,5.16,0,28.14,0,37v36l-3,1v16l3,1v48c-7.47,16.86-3,74.45-3,99V619c0,38.43,5.36,88.36-11,111-2.73,3.77-7.14,5.23-11,8-5.58,4-11.7,9.57-19,12-9.82,3.26-37.26,0-51,0H219c-37.48,0-114.55,6-137-8-11-6.83-20.33-24.1-24-38V313c0-27.33-2-49.8-2-78V203c1.49-4.34,2-11.85,2-19V105c0-11.92-2.12-27.84,1-38,4.6-15,18.31-26.1,32-32,20.83-9,49.12-6,78-6H314c31.62,0,63-2.1,81,11C415.37,54.81,413.24,88.36,413,124Z" fill-rule="evenodd"/>
  </g>
  <g class="g-interactive" id="Phone_camera" data-name="Phone camera" style="isolation: isolate">
    <path d="M178,171c-1.13,1.55-1.08.84-2,3-1.5,2.58-.72,3.66,2,5,2.58,1.5,3.66.72,5-2,1.5-2.58.72-3.66-2-5C179.93,171.25,180.05,171.4,178,171Z" fill-rule="evenodd"/>
    <path d="M111,134c-8.37,5.57-16.29,6.84-20,17-6.2,17,11,38.68,29,34C149.86,177.23,147.74,133,111,134Z" fill-rule="evenodd"/>
    <path d="M175,97c-8.27,5.51-16.34,7-20,17-6.37,17.47,10.73,39.75,29,35C213.91,141.23,212,96,175,97Z" fill-rule="evenodd"/>
    <path d="M111,62c-.86.65-3.14,1.34-4,2-13.33,3.35-21.3,23.33-12,37,2.72,4,8.46,5.75,12,9,13.12,1.3,24.25-.41,30-9C150.33,81.07,133.43,61.34,111,62Z" fill-rule="evenodd"/>
    <path d="M177,59c-1.07.75-.95.6-3,1l-4,5c-1.91,2.38-2.06,5.49-2,10,2.25,2.69,3,5,6,7,2.23,1.79,4.8,2,9,2,2.69-2.25,5-3,7-6,1.91-2.38,2.06-5.49,2-10-2.25-2.69-3-5-6-7C183.77,59.21,181.2,59,177,59Z" fill-rule="evenodd"/>
    <path d="M108,51c36.31-.47,85.84-6.47,101,15,6.35,9,6,23.61,6,39,0,30.1,4.22,72.68-14,85-10.13,6.85-24.82,7-42,7-28.11,0-60.13,3.23-72-13-12.65-17.29-8-48.78-8-78,0-10.7-1.8-25.31,2-33,2.73-5.53,9.77-13.75,15-17C99.71,53.69,104.48,53.48,108,51Z" fill-rule="evenodd"/>
  </g>
  <g id="Camera_Thing" data-name="Camera Thing">
    <image id="Layer_0_copy_Image" data-name="Layer 0 copy Image" width="452" height="782" xlink:href="./svg/phone-conf-v21.png"/>
  </g>
  <g id="Shadow_Image" data-name="Shadow Image">
    <image id="Shadow_Image-2" data-name="Shadow Image" width="362" height="725" opacity=".7" transform="translate(56 27)" xlink:href="./svg/phone-conf-v22.png"/>
  </g>
  <g id="Cardholder1" class="hide">
    <image width="994" height="1500" transform="translate(78.13 234.39) scale(0.33)" xlink:href="../img/card1.png"/>
  </g>
  <g id="Cardholder2" class="hide">
    <image width="994" height="1500" transform="translate(77.26 233.36) scale(0.33)" xlink:href="../img/card2.png"/>
  </g>
  <g id="Cardholder3" class="hide">
    <image width="994" height="1500" transform="translate(70.37 230.21) scale(0.34)" xlink:href="../img/card3.png"/>
  </g>
  <g id="Popsocket1" class="hide">
    <image width="800" height="800" transform="translate(119.31 234.39) scale(0.31)" xlink:href="../img/pop1.png"/>
  </g>
  <g id="Popsocket2" class="hide">
    <image width="706" height="706" transform="translate(141.44 246.52) scale(0.31)" xlink:href="../img/pop2.png"/>
  </g>
  <g id="Popsocket3" class="hide">
    <image width="800" height="800" transform="translate(111.18 226.26) scale(0.33)" xlink:href="../img/pop3.png"/>
  </g>
  <g id="Keychain1" class="hide">
    <image width="160" height="504" transform="translate(5.8) rotate(10.96)" xlink:href="./svg/rick.png"/>
  </g>
  <g id="Keychain2" data-name="Layer 12" class="hide">
    <image width="118" height="426" transform="translate(9.05 50.13) rotate(4.99) scale(1.04)" xlink:href="./svg/morty.png"/>
  </g>
</svg>
