<svg width="165" height="54" viewBox="0 0 165 54" fill="none" xmlns="http://www.w3.org/2000/svg">
<path d="M19.9063 6.03555C19.9063 6.47231 19.7963 6.89925 19.5903 7.2624C19.3842 7.62555 19.0914 7.9086 18.7488 8.07573C18.4062 8.24287 18.0292 8.28661 17.6655 8.2014C17.3017 8.11619 16.9676 7.90587 16.7054 7.59704C16.4432 7.28821 16.2646 6.89473 16.1923 6.46636C16.1199 6.038 16.1571 5.59399 16.299 5.19048C16.4409 4.78697 16.6812 4.44208 16.9896 4.19943C17.2979 3.95679 17.6604 3.82727 18.0313 3.82727C18.5284 3.82793 19.005 4.0608 19.3565 4.47479C19.708 4.88878 19.9057 5.45008 19.9063 6.03555ZM26 3.82727C25.6292 3.82727 25.2666 3.95679 24.9583 4.19943C24.65 4.44208 24.4096 4.78697 24.2677 5.19048C24.1258 5.59399 24.0887 6.038 24.161 6.46636C24.2334 6.89473 24.412 7.28821 24.6742 7.59704C24.9364 7.90587 25.2705 8.11619 25.6342 8.2014C25.9979 8.28661 26.3749 8.24287 26.7175 8.07573C27.0601 7.9086 27.353 7.62555 27.559 7.2624C27.765 6.89925 27.875 6.47231 27.875 6.03555C27.8744 5.45008 27.6767 4.88878 27.3252 4.47479C26.9737 4.0608 26.4971 3.82793 26 3.82727ZM33.9688 8.24383C34.3396 8.24383 34.7021 8.11432 35.0104 7.87167C35.3188 7.62902 35.5591 7.28413 35.701 6.88062C35.8429 6.47711 35.8801 6.0331 35.8077 5.60474C35.7354 5.17637 35.5568 4.78289 35.2946 4.47406C35.0324 4.16523 34.6983 3.95491 34.3345 3.8697C33.9708 3.7845 33.5938 3.82823 33.2512 3.99537C32.9086 4.16251 32.6158 4.44555 32.4097 4.8087C32.2037 5.17185 32.0938 5.59879 32.0938 6.03555C32.0943 6.62102 32.292 7.18232 32.6435 7.59631C32.9951 8.0103 33.4716 8.24317 33.9688 8.24383ZM18.0313 22.5976C17.6604 22.5976 17.2979 22.7272 16.9896 22.9698C16.6812 23.2125 16.4409 23.5573 16.299 23.9608C16.1571 24.3644 16.1199 24.8084 16.1923 25.2367C16.2646 25.6651 16.4432 26.0586 16.7054 26.3674C16.9676 26.6762 17.3017 26.8866 17.6655 26.9718C18.0292 27.057 18.4062 27.0132 18.7488 26.8461C19.0914 26.679 19.3842 26.3959 19.5903 26.0328C19.7963 25.6696 19.9063 25.2427 19.9063 24.8059C19.9057 24.2205 19.708 23.6592 19.3565 23.2452C19.005 22.8312 18.5284 22.5983 18.0313 22.5976ZM26 22.5976C25.6292 22.5976 25.2666 22.7272 24.9583 22.9698C24.65 23.2125 24.4096 23.5573 24.2677 23.9608C24.1258 24.3644 24.0887 24.8084 24.161 25.2367C24.2334 25.6651 24.412 26.0586 24.6742 26.3674C24.9364 26.6762 25.2705 26.8866 25.6342 26.9718C25.9979 27.057 26.3749 27.0132 26.7175 26.8461C27.0601 26.679 27.353 26.3959 27.559 26.0328C27.765 25.6696 27.875 25.2427 27.875 24.8059C27.8744 24.2205 27.6767 23.6592 27.3252 23.2452C26.9737 22.8312 26.4971 22.5983 26 22.5976ZM33.9688 22.5976C33.5979 22.5976 33.2354 22.7272 32.9271 22.9698C32.6187 23.2125 32.3784 23.5573 32.2365 23.9608C32.0946 24.3644 32.0574 24.8084 32.1298 25.2367C32.2021 25.6651 32.3807 26.0586 32.6429 26.3674C32.9051 26.6762 33.2392 26.8866 33.603 26.9718C33.9667 27.057 34.3437 27.0132 34.6863 26.8461C35.0289 26.679 35.3217 26.3959 35.5278 26.0328C35.7338 25.6696 35.8438 25.2427 35.8438 24.8059C35.8432 24.2205 35.6455 23.6592 35.294 23.2452C34.9424 22.8312 34.4659 22.5983 33.9688 22.5976ZM18.0313 13.2125C17.6604 13.2125 17.2979 13.342 16.9896 13.5846C16.6812 13.8273 16.4409 14.1722 16.299 14.5757C16.1571 14.9792 16.1199 15.4232 16.1923 15.8515C16.2646 16.2799 16.4432 16.6734 16.7054 16.9822C16.9676 17.2911 17.3017 17.5014 17.6655 17.5866C18.0292 17.6718 18.4062 17.6281 18.7488 17.4609C19.0914 17.2938 19.3842 17.0107 19.5903 16.6476C19.7963 16.2844 19.9063 15.8575 19.9063 15.4207C19.9057 14.8353 19.708 14.274 19.3565 13.86C19.005 13.446 18.5284 13.2131 18.0313 13.2125ZM26 13.2125C25.6292 13.2125 25.2666 13.342 24.9583 13.5846C24.65 13.8273 24.4096 14.1722 24.2677 14.5757C24.1258 14.9792 24.0887 15.4232 24.161 15.8515C24.2334 16.2799 24.412 16.6734 24.6742 16.9822C24.9364 17.2911 25.2705 17.5014 25.6342 17.5866C25.9979 17.6718 26.3749 17.6281 26.7175 17.4609C27.0601 17.2938 27.353 17.0107 27.559 16.6476C27.765 16.2844 27.875 15.8575 27.875 15.4207C27.8744 14.8353 27.6767 14.274 27.3252 13.86C26.9737 13.446 26.4971 13.2131 26 13.2125ZM33.9688 13.2125C33.5979 13.2125 33.2354 13.342 32.9271 13.5846C32.6187 13.8273 32.3784 14.1722 32.2365 14.5757C32.0946 14.9792 32.0574 15.4232 32.1298 15.8515C32.2021 16.2799 32.3807 16.6734 32.6429 16.9822C32.9051 17.2911 33.2392 17.5014 33.603 17.5866C33.9667 17.6718 34.3437 17.6281 34.6863 17.4609C35.0289 17.2938 35.3217 17.0107 35.5278 16.6476C35.7338 16.2844 35.8438 15.8575 35.8438 15.4207C35.8432 14.8353 35.6455 14.274 35.294 13.86C34.9424 13.446 34.4659 13.2131 33.9688 13.2125Z" fill="black"/>
<path d="M3.75 24.6955C3.75 25.1323 3.64003 25.5592 3.43401 25.9223C3.22798 26.2855 2.93514 26.5685 2.59253 26.7357C2.24992 26.9028 1.87292 26.9465 1.50921 26.8613C1.14549 26.7761 0.811399 26.5658 0.549176 26.257C0.286952 25.9481 0.108376 25.5547 0.0360284 25.1263C-0.0363188 24.6979 0.000812402 24.2539 0.142727 23.8504C0.284641 23.4469 0.524965 23.102 0.833307 22.8594C1.14165 22.6167 1.50416 22.4872 1.875 22.4872C2.37211 22.4879 2.8487 22.7207 3.20021 23.1347C3.55172 23.5487 3.74944 24.11 3.75 24.6955ZM9.84375 22.4872C9.47291 22.4872 9.1104 22.6167 8.80206 22.8594C8.49371 23.102 8.25339 23.4469 8.11148 23.8504C7.96956 24.2539 7.93243 24.6979 8.00478 25.1263C8.07713 25.5547 8.2557 25.9481 8.51793 26.257C8.78015 26.5658 9.11424 26.7761 9.47796 26.8613C9.84167 26.9465 10.2187 26.9028 10.5613 26.7357C10.9039 26.5685 11.1967 26.2855 11.4028 25.9223C11.6088 25.5592 11.7188 25.1323 11.7188 24.6955C11.7182 24.11 11.5205 23.5487 11.169 23.1347C10.8174 22.7207 10.3409 22.4879 9.84375 22.4872ZM17.8125 26.9038C18.1833 26.9038 18.5459 26.7743 18.8542 26.5316C19.1625 26.289 19.4029 25.9441 19.5448 25.5406C19.6867 25.1371 19.7238 24.693 19.6515 24.2647C19.5791 23.8363 19.4005 23.4428 19.1383 23.134C18.8761 22.8252 18.542 22.6149 18.1783 22.5296C17.8146 22.4444 17.4376 22.4882 17.095 22.6553C16.7524 22.8224 16.4595 23.1055 16.2535 23.4686C16.0475 23.8318 15.9375 24.2587 15.9375 24.6955C15.9381 25.281 16.1358 25.8423 16.4873 26.2563C16.8388 26.6702 17.3154 26.9031 17.8125 26.9038ZM1.875 41.2576C1.50416 41.2576 1.14165 41.3871 0.833307 41.6298C0.524965 41.8724 0.284641 42.2173 0.142727 42.6208C0.000812402 43.0243 -0.0363188 43.4683 0.0360284 43.8967C0.108376 44.325 0.286952 44.7185 0.549176 45.0274C0.811399 45.3362 1.14549 45.5465 1.50921 45.6317C1.87292 45.7169 2.24992 45.6732 2.59253 45.5061C2.93514 45.3389 3.22798 45.0559 3.43401 44.6927C3.64003 44.3296 3.75 43.9026 3.75 43.4659C3.74944 42.8804 3.55172 42.3191 3.20021 41.9051C2.8487 41.4911 2.37211 41.2582 1.875 41.2576ZM9.84375 41.2576C9.47291 41.2576 9.1104 41.3871 8.80206 41.6298C8.49371 41.8724 8.25339 42.2173 8.11148 42.6208C7.96956 43.0243 7.93243 43.4683 8.00478 43.8967C8.07713 44.325 8.2557 44.7185 8.51793 45.0274C8.78015 45.3362 9.11424 45.5465 9.47796 45.6317C9.84167 45.7169 10.2187 45.6732 10.5613 45.5061C10.9039 45.3389 11.1967 45.0559 11.4028 44.6927C11.6088 44.3296 11.7188 43.9026 11.7188 43.4659C11.7182 42.8804 11.5205 42.3191 11.169 41.9051C10.8174 41.4911 10.3409 41.2582 9.84375 41.2576ZM17.8125 41.2576C17.4417 41.2576 17.0791 41.3871 16.7708 41.6298C16.4625 41.8724 16.2221 42.2173 16.0802 42.6208C15.9383 43.0243 15.9012 43.4683 15.9735 43.8967C16.0459 44.325 16.2245 44.7185 16.4867 45.0274C16.7489 45.3362 17.083 45.5465 17.4467 45.6317C17.8104 45.7169 18.1874 45.6732 18.53 45.5061C18.8726 45.3389 19.1655 45.0559 19.3715 44.6927C19.5775 44.3296 19.6875 43.9026 19.6875 43.4659C19.6869 42.8804 19.4892 42.3191 19.1377 41.9051C18.7862 41.4911 18.3096 41.2582 17.8125 41.2576ZM1.875 31.8724C1.50416 31.8724 1.14165 32.0019 0.833307 32.2446C0.524965 32.4872 0.284641 32.8321 0.142727 33.2356C0.000812402 33.6391 -0.0363188 34.0831 0.0360284 34.5115C0.108376 34.9399 0.286952 35.3333 0.549176 35.6422C0.811399 35.951 1.14549 36.1613 1.50921 36.2465C1.87292 36.3317 2.24992 36.288 2.59253 36.1209C2.93514 35.9537 3.22798 35.6707 3.43401 35.3075C3.64003 34.9444 3.75 34.5174 3.75 34.0807C3.74944 33.4952 3.55172 32.9339 3.20021 32.5199C2.8487 32.1059 2.37211 31.8731 1.875 31.8724ZM9.84375 31.8724C9.47291 31.8724 9.1104 32.0019 8.80206 32.2446C8.49371 32.4872 8.25339 32.8321 8.11148 33.2356C7.96956 33.6391 7.93243 34.0831 8.00478 34.5115C8.07713 34.9399 8.2557 35.3333 8.51793 35.6422C8.78015 35.951 9.11424 36.1613 9.47796 36.2465C9.84167 36.3317 10.2187 36.288 10.5613 36.1209C10.9039 35.9537 11.1967 35.6707 11.4028 35.3075C11.6088 34.9444 11.7188 34.5174 11.7188 34.0807C11.7182 33.4952 11.5205 32.9339 11.169 32.5199C10.8174 32.1059 10.3409 31.8731 9.84375 31.8724ZM17.8125 31.8724C17.4417 31.8724 17.0791 32.0019 16.7708 32.2446C16.4625 32.4872 16.2221 32.8321 16.0802 33.2356C15.9383 33.6391 15.9012 34.0831 15.9735 34.5115C16.0459 34.9399 16.2245 35.3333 16.4867 35.6422C16.7489 35.951 17.083 36.1613 17.4467 36.2465C17.8104 36.3317 18.1874 36.288 18.53 36.1209C18.8726 35.9537 19.1655 35.6707 19.3715 35.3075C19.5775 34.9444 19.6875 34.5174 19.6875 34.0807C19.6869 33.4952 19.4892 32.9339 19.1377 32.5199C18.7862 32.1059 18.3096 31.8731 17.8125 31.8724Z" fill="black"/>
<path d="M47.48 36.11V15.07H48.08L53.4 34.91H58.92L64.24 15.07H64.84V36.11H70.36V8.90999H60.96L56.16 28.75L51.36 8.90999H41.96V36.11H47.48ZM86.3759 36.59C84.2959 36.59 82.5359 36.31 81.0959 35.75C79.6826 35.19 78.5226 34.35 77.6159 33.23C76.7359 32.0833 76.0959 30.63 75.6959 28.87C75.2959 27.11 75.0959 25.03 75.0959 22.63C75.0959 20.23 75.2959 18.15 75.6959 16.39C76.0959 14.6033 76.7359 13.1233 77.6159 11.95C78.5226 10.75 79.6826 9.86998 81.0959 9.30998C82.5359 8.72332 84.2959 8.42998 86.3759 8.42998C88.4559 8.42998 90.2026 8.72332 91.6159 9.30998C93.0559 9.86998 94.2159 10.75 95.0959 11.95C96.0026 13.1233 96.6559 14.6033 97.0559 16.39C97.4559 18.15 97.6559 20.23 97.6559 22.63C97.6559 24.6833 97.4959 26.5767 97.1759 28.31C96.8826 30.0167 96.3093 31.4833 95.4559 32.71C94.6293 33.9367 93.4826 34.8967 92.0159 35.59C90.5759 36.2567 88.6959 36.59 86.3759 36.59ZM81.9759 29.67C82.7493 31.0833 84.2159 31.79 86.3759 31.79C87.4693 31.79 88.3626 31.63 89.0559 31.31C89.7759 30.9633 90.3493 30.43 90.7759 29.71C91.2293 28.9633 91.5359 28.0167 91.6959 26.87C91.8826 25.6967 91.9759 24.2833 91.9759 22.63C91.9759 20.9767 91.8826 19.5633 91.6959 18.39C91.5093 17.2167 91.2026 16.2433 90.7759 15.47C90.3493 14.6967 89.7759 14.1367 89.0559 13.79C88.3359 13.4167 87.4426 13.23 86.3759 13.23C85.3093 13.23 84.4159 13.4167 83.6959 13.79C82.9759 14.1367 82.4026 14.6967 81.9759 15.47C81.5493 16.2433 81.2426 17.2167 81.0559 18.39C80.8693 19.5633 80.7759 20.9767 80.7759 22.63C80.7759 25.91 81.1759 28.2567 81.9759 29.67ZM107.91 36.11V13.71H108.31L115.11 36.11H124.19V8.90999H118.67V31.31H118.27L111.71 8.90999H102.39V36.11H107.91ZM135.644 36.11V8.90999H130.124V36.11H135.644ZM151.649 36.59C149.569 36.59 147.809 36.31 146.369 35.75C144.956 35.19 143.796 34.35 142.889 33.23C142.009 32.0833 141.369 30.63 140.969 28.87C140.569 27.11 140.369 25.03 140.369 22.63C140.369 20.23 140.569 18.15 140.969 16.39C141.369 14.6033 142.009 13.1233 142.889 11.95C143.796 10.75 144.956 9.86998 146.369 9.30998C147.809 8.72332 149.569 8.42998 151.649 8.42998C153.729 8.42998 155.476 8.72332 156.889 9.30998C158.329 9.86998 159.489 10.75 160.369 11.95C161.276 13.1233 161.929 14.6033 162.329 16.39C162.729 18.15 162.929 20.23 162.929 22.63C162.929 24.6833 162.769 26.5767 162.449 28.31C162.156 30.0167 161.583 31.4833 160.729 32.71C159.903 33.9367 158.756 34.8967 157.289 35.59C155.849 36.2567 153.969 36.59 151.649 36.59ZM147.249 29.67C148.023 31.0833 149.489 31.79 151.649 31.79C152.743 31.79 153.636 31.63 154.329 31.31C155.049 30.9633 155.623 30.43 156.049 29.71C156.503 28.9633 156.809 28.0167 156.969 26.87C157.156 25.6967 157.249 24.2833 157.249 22.63C157.249 20.9767 157.156 19.5633 156.969 18.39C156.783 17.2167 156.476 16.2433 156.049 15.47C155.623 14.6967 155.049 14.1367 154.329 13.79C153.609 13.4167 152.716 13.23 151.649 13.23C150.583 13.23 149.689 13.4167 148.969 13.79C148.249 14.1367 147.676 14.6967 147.249 15.47C146.823 16.2433 146.516 17.2167 146.329 18.39C146.143 19.5633 146.049 20.9767 146.049 22.63C146.049 25.91 146.449 28.2567 147.249 29.67Z" fill="#333333"/>
</svg>
